<?xml version="1.0" encoding="iso-8859-1"?>
<!-- Uploaded to: SVG Repo, www.svgrepo.com, Generator: SVG Repo Mixer Tools -->
<svg version="1.1" id="Layer_1" xmlns="http://www.w3.org/2000/svg" xmlns:xlink="http://www.w3.org/1999/xlink" 
	 viewBox="0 0 512 512" xml:space="preserve">
<path style="fill:#CFCDD2;" d="M480.618,78.061h-0.001l-20.235-20.235l-30.354,30.356l20.236,20.236h0.001
	c25.103,25.106,25.103,65.958-0.001,91.066L227.663,422.08l30.354,30.354L480.62,229.837
	C522.46,187.992,522.46,119.904,480.618,78.061z"/>
<path style="fill:#98C8ED;" d="M60.71,497.97L475.558,83.122c11.176-11.176,11.177-29.298,0-40.474L455.321,22.41
	c-11.177-11.174-29.296-11.177-40.473,0L0,437.26v60.712L60.71,497.97z"/>
<path style="fill:#7AB9E8;" d="M475.56,83.12c11.176-11.177,11.176-29.297-0.001-40.474l-10.115-10.115L0.004,497.969h60.707
	L475.56,83.12z"/>
<rect x="361.8" y="71.763" transform="matrix(-0.7071 -0.7071 0.7071 -0.7071 624.9923 445.334)" style="fill:#DFDFE1;" width="85.855" height="42.928"/>
<rect x="398.463" y="86.936" transform="matrix(-0.7071 -0.7071 0.7071 -0.7071 640.2092 481.9821)" style="fill:#CFCDD2;" width="42.928" height="42.928"/>
</svg>